:SAMPLES-PER-SECOND 30
:FULLY-SPECIFIED
:DEGREES
602
root  -4.24442 40.9725 0.473666 149.033 -87.9809 -148.334
RightUpLeg  3.75568 -1.10399 -0.890108
RightLeg  -4.39806 -18.5234 2.02489
RightFoot  1.26665 -0.357893 3.31809
RightToes  -3.1126e-008 1.75238e-005 3.56266e-009
Spine  8.09185 0.0522088 -3.77855
Spine1  -10.7369 -0.408091 3.67473
HEad  3.54118 -5.50126 0.225771
LeftShoulder1  -0.0985874 4.42117 -2.57658
LeftArm  -52.9798 7.25636 -0.00243363
LeftForeArm  48.9018 -19.2051 -0.745046
LeftHand  -0.243605 -0.939053 4.58102
RightShoulder  -0.164093 -5.32953 0.568035
RightArm  -43.5768 -5.20721 3.03624
RightForeArm  23.4799 12.8346 1.72607
RightHand  -0.0164673 4.29938 -0.488452
LeftUpLeg  4.04851 1.75252 3.19094
LeftLeg  -2.84495 18.7323 -0.883929
LeftFoot  -0.70253 0.335494 -3.55779
LeftToes  4.78049e-008 1.46235e-008 1.34219e-009
603
root  -4.20855 40.9569 0.502062 152.987 -87.7399 -152.651
RightUpLeg  3.67077 -1.13144 -0.935367
RightLeg  -3.54679 -18.236 1.67122
RightFoot  0.919743 -0.364479 3.4491
RightToes  -3.1126e-008 1.75238e-005 3.56266e-009
Spine  8.25157 0.0491598 -3.92787
Spine1  -10.3645 -0.469553 4.0201
HEad  3.47671 -4.495 -0.0780793
LeftShoulder1  -0.111635 4.59774 -1.95746
LeftArm  -52.1223 7.06937 1.30183
LeftForeArm  48.0626 -17.9281 -0.244231
LeftHand  -0.215062 -0.607064 4.26735
RightShoulder  -0.170986 -5.64022 -0.515334
RightArm  -43.4884 -3.66686 1.62684
RightForeArm  24.5394 12.1689 1.849
RightHand  -0.00866967 3.16033 -0.347579
LeftUpLeg  4.1887 1.79079 3.11926
LeftLeg  -2.33968 18.972 -0.7349
LeftFoot  -0.928895 0.322756 -3.48142
LeftToes  4.78049e-008 1.46235e-008 1.34219e-009
604
root  -4.16922 40.9358 0.520857 156.293 -87.4412 -156.407
RightUpLeg  3.38934 -1.26793 -1.04063
RightLeg  -2.11725 -17.7533 1.28515
RightFoot  0.377473 -0.352792 3.46191
RightToes  -3.1126e-008 1.75238e-005 3.56266e-009
Spine  8.27071 0.180731 -3.7505
Spine1  -9.59678 -0.349316 3.72378
HEad  3.12912 -3.50572 -0.189394
LeftShoulder1  -0.120002 4.72345 -1.55422
LeftArm  -51.5339 6.61878 2.04491
LeftForeArm  47.3912 -17.1587 -0.0315424
LeftHand  -0.205939 0.0606912 4.515
RightShoulder  -0.183369 -5.96155 -1.14593
RightArm  -43.6632 -2.79904 0.436647
RightForeArm  26.1028 11.7216 1.77323
RightHand  0.0751718 3.22771 0.775176
LeftUpLeg  4.44153 1.9131 3.09834
LeftLeg  -1.84099 19.0924 -0.598033
LeftFoot  -1.15981 0.322393 -3.54289
LeftToes  4.78049e-008 1.46235e-008 1.34219e-009
605
root  -4.11989 40.9181 0.540825 159.982 -87.0409 -160.49
RightUpLeg  3.0443 -1.12371 -1.00748
RightLeg  -0.77366 -17.4326 0.677218
RightFoot  0.0171654 -0.358903 3.62073
RightToes  -3.1126e-008 1.75238e-005 3.56266e-009
Spine  8.47878 0.310994 -3.63884
Spine1  -9.08884 -0.231182 3.51967
HEad  2.48057 -3.33733 -0.324844
LeftShoulder1  -0.135271 4.91334 -1.27098
LeftArm  -50.9918 6.40774 2.39193
LeftForeArm  47.4766 -16.4761 0.173302
LeftHand  -0.180322 0.42949 4.20307
RightShoulder  -0.1788 -5.90231 -1.14299
RightArm  -43.7876 -2.15308 -0.908513
RightForeArm  27.2525 11.4022 1.75676
RightHand  0.155703 3.27942 1.84374
LeftUpLeg  4.71977 1.98825 3.04417
LeftLeg  -1.55285 19.4337 -0.521574
LeftFoot  -1.31196 0.318307 -3.54417
LeftToes  4.78049e-008 1.46235e-008 1.34219e-009
606
root  -4.09423 40.9115 0.556339 159.702 -87.0124 -160.494
RightUpLeg  3.07679 -1.14474 -1.03178
RightLeg  -0.314771 -17.3579 0.519174
RightFoot  -0.0341277 -0.360914 3.66971
RightToes  -3.1126e-008 1.75238e-005 3.56266e-009
Spine  8.4594 0.259343 -3.66136
Spine1  -8.56083 -0.318565 3.63209
HEad  2.73347 -2.46332 -0.634746
LeftShoulder1  -0.138998 4.9472 -1.31577
LeftArm  -50.1892 6.21131 2.73523
LeftForeArm  46.7189 -15.3108 0.427254
LeftHand  -0.150642 0.741791 3.80065
RightShoulder  -0.195704 -6.13802 -1.17346
RightArm  -43.9865 -1.27274 -1.73698
RightForeArm  28.3259 10.7097 1.66222
RightHand  0.140135 2.97298 1.72156
LeftUpLeg  4.90603 2.02738 3.03729
LeftLeg  -1.36447 19.4108 -0.450534
LeftFoot  -1.39919 0.311975 -3.49736
LeftToes  4.78049e-008 1.46235e-008 1.34219e-009
607
root  -4.08386 40.9145 0.575442 159.098 -87.1476 -159.959
RightUpLeg  3.1357 -1.23597 -1.11698
RightLeg  -0.281793 -17.3813 0.557925
RightFoot  -0.0177906 -0.363676 3.69673
RightToes  -3.1126e-008 1.75238e-005 3.56266e-009
Spine  7.89181 0.230703 -3.64874
Spine1  -7.71211 -0.36641 3.68191
HEad  2.91647 -2.34654 -0.782414
LeftShoulder1  -0.125431 4.80504 -1.33309
LeftArm  -50.0668 5.35425 2.65217
LeftForeArm  46.4622 -13.1641 1.30828
LeftHand  -0.144183 -0.773373 2.77681
RightShoulder  -0.197117 -6.27059 -1.51142
RightArm  -43.7179 -1.08775 -2.24908
RightForeArm  28.3283 9.88302 1.74891
RightHand  0.159472 2.9712 1.99066
LeftUpLeg  4.92201 2.01083 3.00086
LeftLeg  -1.31155 19.3219 -0.433139
LeftFoot  -1.39885 0.314835 -3.5698
LeftToes  4.78049e-008 1.46235e-008 1.34219e-009
608
root  -4.07591 40.9198 0.593005 157.073 -87.3324 -157.952
RightUpLeg  3.31897 -1.2615 -1.13441
RightLeg  -0.609475 -17.586 0.67817
RightFoot  0.120314 -0.368911 3.74114
RightToes  -3.1126e-008 1.75238e-005 3.56266e-009
Spine  7.34864 0.115745 -3.2182
Spine1  -7.05589 -0.408241 3.07417
HEad  3.33027 -2.72067 -0.787155
LeftShoulder1  -0.130355 4.91373 -0.87024
LeftArm  -50.1667 4.08006 1.90529
LeftForeArm  45.6425 -10.8729 2.14235
LeftHand  -0.0999375 0.38935 2.3005
RightShoulder  -0.208549 -6.54948 -1.83362
RightArm  -43.9307 -0.820124 -2.02831
RightForeArm  27.7885 9.02644 1.49646
RightHand  0.133776 2.30538 1.83385
LeftUpLeg  4.9274 2.04924 3.01815
LeftLeg  -1.38116 19.0511 -0.494992
LeftFoot  -1.32885 0.304279 -3.42045
LeftToes  4.78049e-008 1.46235e-008 1.34219e-009
609
root  -4.05729 40.923 0.604619 151.989 -87.6875 -152.86
RightUpLeg  3.52702 -1.34994 -1.13371
RightLeg  -1.01741 -17.914 0.909276
RightFoot  0.24017 -0.363447 3.61111
RightToes  -3.1126e-008 1.75238e-005 3.56266e-009
Spine  7.14246 -0.123094 -3.19575
Spine1  -6.85078 -0.650142 3.10331
HEad  3.63532 -2.72267 -0.968769
LeftShoulder1  -0.110389 4.70721 -0.801912
LeftArm  -49.9083 3.74519 1.82561
LeftForeArm  45.1254 -8.99065 2.37168
LeftHand  -0.0811485 1.08419 2.05649
RightShoulder  -0.19705 -6.44647 -2.00008
RightArm  -43.9426 -0.694723 -2.01186
RightForeArm  27.2738 8.37783 1.40122
RightHand  0.113658 2.32537 1.52115
LeftUpLeg  4.84594 2.13282 3.13063
LeftLeg  -1.40106 18.5328 -0.574563
LeftFoot  -1.347 0.296184 -3.30276
LeftToes  4.78049e-008 1.46235e-008 1.34219e-009
610
root  -4.03058 40.9208 0.625741 150.633 -87.8021 -151.568
RightUpLeg  3.51677 -1.41969 -1.19869
RightLeg  -0.901159 -17.9721 0.913494
RightFoot  0.195967 -0.366641 3.61964
RightToes  -3.1126e-008 1.75238e-005 3.56266e-009
Spine  6.73107 -0.275733 -3.17176
Spine1  -6.20069 -0.802124 2.99415
HEad  3.76439 -3.31834 -1.31318
LeftShoulder1  -0.0836015 4.39859 -0.992508
LeftArm  -49.746 3.70287 2.01917
LeftForeArm  44.8374 -7.48403 2.54231
LeftHand  -0.0727487 1.12362 1.8564
RightShoulder  -0.179111 -6.15523 -1.92179
RightArm  -43.9774 -0.756073 -2.03857
RightForeArm  27.1445 8.23363 1.34327
RightHand  0.167882 2.46471 2.28499
LeftUpLeg  4.78122 2.11033 3.09889
LeftLeg  -1.22174 18.3965 -0.50586
LeftFoot  -1.4004 0.298625 -3.34867
LeftToes  4.78049e-008 1.46235e-008 1.34219e-009
611
root  -4.00318 40.9143 0.6497 153.359 -87.7528 -154.424
RightUpLeg  3.36987 -1.41877 -1.28996
RightLeg  -0.413985 -17.8472 0.676745
RightFoot  0.0678285 -0.380385 3.80871
RightToes  -3.1126e-008 1.75238e-005 3.56266e-009
Spine  6.23247 -0.337052 -2.96217
Spine1  -5.30387 -0.815886 2.51709
HEad  3.62308 -3.46352 -1.4759
LeftShoulder1  -0.0666593 4.2101 -1.09672
LeftArm  -50.0565 3.70682 1.83026
LeftForeArm  45.1245 -6.67877 2.98246
LeftHand  -0.0684892 0.320917 1.52483
RightShoulder  -0.174564 -5.96991 -1.57057
RightArm  -44.1089 -0.829743 -2.01662
RightForeArm  27.1319 8.3608 1.26341
RightHand  0.141505 2.38067 1.92453
LeftUpLeg  4.84243 2.05834 2.96604
LeftLeg  -1.11862 18.5848 -0.460951
LeftFoot  -1.44706 0.299438 -3.37511
LeftToes  4.78049e-008 1.46235e-008 1.34219e-009
